<?xml version="1.0" encoding="UTF-8"?>
<svg width="44px" height="44px" viewBox="0 0 44 44" version="1.1" xmlns="http://www.w3.org/2000/svg" xmlns:xlink="http://www.w3.org/1999/xlink">
    <!-- Generator: sketchtool 41.2 (35397) - http://www.bohemiancoding.com/sketch -->
    <title>D5E8900B-B110-4D08-BEB3-37D3F8094B4C</title>
    <desc>Created with sketchtool.</desc>
    <defs>
        <filter x="-50%" y="-50%" width="200%" height="200%" filterUnits="objectBoundingBox" id="filter-1">
            <feOffset dx="0" dy="2" in="SourceAlpha" result="shadowOffsetOuter1"></feOffset>
            <feGaussianBlur stdDeviation="2" in="shadowOffsetOuter1" result="shadowBlurOuter1"></feGaussianBlur>
            <feColorMatrix values="0 0 0 0 0   0 0 0 0 0   0 0 0 0 0  0 0 0 0.3 0" type="matrix" in="shadowBlurOuter1" result="shadowMatrixOuter1"></feColorMatrix>
            <feMerge>
                <feMergeNode in="shadowMatrixOuter1"></feMergeNode>
                <feMergeNode in="SourceGraphic"></feMergeNode>
            </feMerge>
        </filter>
    </defs>
    <g id="Symbols" stroke="none" stroke-width="1" fill="none" fill-rule="evenodd">
        <g id="social_icons" transform="translate(4.000000, 2.000000)">
            <g filter="url(#filter-1)" id="Facebook">
                <g>
                    <path d="M0,18 C0,8.05887401 8.05887401,0 18,0 C27.941126,0 36,8.05887401 36,18 C36,27.941126 27.941126,36 18,36 C8.05887401,36 0,27.941126 0,18 Z" id="back" fill="#3B5998"></path>
                    <path d="M19.8761663,28.5836075 L19.8761663,18.7906572 L22.5794489,18.7906572 L22.9376922,15.4159523 L19.8761663,15.4159523 L19.8807592,13.72688 C19.8807592,12.846705 19.9643876,12.3750871 21.2285731,12.3750871 L22.9185553,12.3750871 L22.9185553,9 L20.21489,9 C16.9673531,9 15.8243043,10.637095 15.8243043,13.3901739 L15.8243043,15.4163345 L13.8,15.4163345 L13.8,18.7910394 L15.8243043,18.7910394 L15.8243043,28.5836075 L19.8761663,28.5836075 Z" id="Shape" fill="#FFFFFF"></path>
                </g>
            </g>
        </g>
    </g>
</svg>