<?xml version="1.0" encoding="UTF-8"?>
<svg width="83px" height="76px" viewBox="0 0 83 76" version="1.1" xmlns="http://www.w3.org/2000/svg" xmlns:xlink="http://www.w3.org/1999/xlink">
    <!-- Generator: sketchtool 41.2 (35397) - http://www.bohemiancoding.com/sketch -->
    <title>3F73EC73-D808-4B79-A59A-2A1D916B1D68</title>
    <desc>Created with sketchtool.</desc>
    <defs>
        <filter x="-50%" y="-50%" width="200%" height="200%" filterUnits="objectBoundingBox" id="filter-1">
            <feOffset dx="0" dy="2" in="SourceAlpha" result="shadowOffsetOuter1"></feOffset>
            <feGaussianBlur stdDeviation="2" in="shadowOffsetOuter1" result="shadowBlurOuter1"></feGaussianBlur>
            <feColorMatrix values="0 0 0 0 0   0 0 0 0 0   0 0 0 0 0  0 0 0 0.5 0" type="matrix" in="shadowBlurOuter1" result="shadowMatrixOuter1"></feColorMatrix>
            <feMerge>
                <feMergeNode in="shadowMatrixOuter1"></feMergeNode>
                <feMergeNode in="SourceGraphic"></feMergeNode>
            </feMerge>
        </filter>
        <linearGradient x1="50%" y1="0%" x2="50%" y2="100%" id="linearGradient-2">
            <stop stop-color="#FFD42C" offset="0%"></stop>
            <stop stop-color="#EFAA31" offset="100%"></stop>
        </linearGradient>
    </defs>
    <g id="Page-1" stroke="none" stroke-width="1" fill="none" fill-rule="evenodd" opacity="0.9">
        <g id="Main_Medium" transform="translate(-190.000000, -936.000000)">
            <g id="promo" transform="translate(0.000000, 700.000000)">
                <g id="Group-10" transform="translate(194.000000, 238.000000)">
                    <g id="Group" filter="url(#filter-1)">
                        <path d="M25.5652753,34.9860786 C25.6149627,34.1762507 25.66465,33.3652294 25.7707822,32.5460543 C25.966948,30.6038196 26.3884956,28.6536298 26.8191857,26.7565402 C27.0813362,25.8102825 27.3653492,24.8755597 27.6632747,23.961719 C28.0442774,23.0697548 28.4171314,22.1825636 28.7889917,21.3160556 C29.6306957,19.6246051 30.5717744,18.044128 31.6951064,16.7211969 C31.9618282,16.3803214 32.226165,16.0499864 32.4849368,15.7184581 C32.7804772,15.4227277 33.0762164,15.1361456 33.3612232,14.8495636 C33.9628378,14.3054356 34.4845552,13.7161625 35.0851761,13.2840023 C36.2822441,12.3968111 37.34138,11.553373 38.4195959,11.0311214 C39.4588569,10.4509967 40.3500495,9.9474396 41.1535936,9.66324408 C42.7284844,9.02902471 43.6222607,8.71022456 43.6222607,8.71022456 C43.6222607,8.71022456 42.8600565,9.31560675 41.5278388,10.2976623 C40.8395694,10.7471248 40.1099601,11.4565198 39.2416237,12.183217 C38.3363199,12.8763041 37.5166771,13.8698945 36.5422084,14.8221186 C36.0548747,15.3085722 35.6764557,15.9197218 35.2155557,16.4823454 C34.9915651,16.7689274 34.7618107,17.0576971 34.5249013,17.3512399 C34.3333068,17.6748131 34.1347561,17.9993806 33.9338204,18.3309089 C33.0736327,19.6065073 32.4306782,21.1038537 31.7606937,22.6230766 C31.4858232,23.4179887 31.2077727,24.2244358 30.923561,25.0388379 C30.7295815,25.885657 30.514932,26.7416244 30.2806064,27.5944098 C29.9284224,29.3469157 29.5831945,31.1344239 29.4341324,32.972447 C29.3303852,33.6390833 29.2806978,34.3114871 29.2182905,34.9884651 C43.8136565,34.9908516 55.1101788,35 70.9169227,35 C70.9699888,34.3067141 71,33.6042798 71,32.8984647 C71,19.5774712 61.2988397,8.60621179 48.8153856,7.15281724 C49.6213147,6.39847603 50.1317033,5.32851672 50.1317033,4.13843558 C50.1362746,1.85095006 48.284327,0 46.0028819,0 C43.7190517,0 41.8649179,1.85095006 41.8649179,4.13843558 C41.8649179,5.33090324 42.3729216,6.39827716 43.1810369,7.15281724 C30.6985766,8.60621179 21,19.5774712 21,32.8984647 C21,33.6020922 21.0252412,34.2951792 21.0773135,34.9862775 C22.6188144,34.9860786 24.1070504,34.9860786 25.5652753,34.9860786 Z" id="Shape" fill="url(#linearGradient-2)"></path>
                        <path d="M40.9063405,10.7563331 C40.3976776,11.1665704 39.8541674,11.6705887 39.2416237,12.183217 C38.3363199,12.8763041 37.5166771,13.8698945 36.5422084,14.8221186 C36.0548747,15.3085722 35.6764557,15.9197218 35.2155557,16.4823454 C34.9915651,16.7689274 34.7618107,17.0576971 34.5249013,17.3512399 C34.3333068,17.6748131 34.1347561,17.9993806 33.9338204,18.3309089 C33.0736327,19.6065073 32.4306782,21.1038537 31.7606937,22.6230766 C31.4858232,23.4179887 31.2077727,24.2244358 30.923561,25.0388379 C30.7295815,25.885657 30.514932,26.7416244 30.2806064,27.5944098 C29.9284224,29.3469157 29.5831945,31.1344239 29.4341324,32.972447 C29.3303852,33.6390833 29.2806978,34.3114871 29.2182905,34.9884651 C29.2487199,34.9884701 29.2791349,34.9884751 29.3095357,34.9884801 C29.3429964,34.6484293 29.3816464,34.3097001 29.4341324,33.972447 C29.5831945,32.1344239 29.9284224,30.3469157 30.2806064,28.5944098 C30.514932,27.7416244 30.7295815,26.885657 30.923561,26.0388379 C31.2077727,25.2244358 31.4858232,24.4179887 31.7606937,23.6230766 C32.4306782,22.1038537 33.0736327,20.6065073 33.9338204,19.3309089 C34.1347561,18.9993806 34.3333068,18.6748131 34.5249013,18.3512399 C34.7618107,18.0576971 34.9915651,17.7689274 35.2155557,17.4823454 C35.6764557,16.9197218 36.0548747,16.3085722 36.5422084,15.8221186 C37.5166771,14.8698945 38.3363199,13.8763041 39.2416237,13.183217 C40.1099601,12.4565198 40.8395694,11.7471248 41.5278388,11.2976623 C42.8600565,10.3156067 43.6222607,9.71022456 43.6222607,9.71022456 C43.6222607,9.71022456 42.7284844,10.0290247 41.1535936,10.6632441 C41.0720985,10.6920671 40.9897018,10.7231464 40.9063405,10.7563331 Z M70.9952529,33.3884693 C70.9983888,33.2253638 71,33.062005 71,32.8984647 C71,19.8385676 61.6754054,9.03719597 49.5461678,7.24919404 C49.3452791,7.58371723 49.0985778,7.88775226 48.8153856,8.15281724 C61.1391647,9.58762152 70.7513711,20.2983632 70.9952529,33.3884693 Z M50.1020804,4.63234223 C50.1216305,4.47043871 50.1317033,4.30562248 50.1317033,4.13843558 C50.1362746,1.85095006 48.284327,0 46.0028819,0 C43.7190517,0 41.8649179,1.85095006 41.8649179,4.13843558 C41.8649179,4.30741247 41.8751186,4.47387749 41.8949284,4.63729644 C42.1422855,2.58659751 43.8884201,1 46.0028819,1 C48.1134342,1 49.8564226,2.58404274 50.1020804,4.63234223 Z M42.449153,7.24936537 C30.3215157,9.03788589 21,19.8389847 21,32.8984647 C21,33.0681719 21.0014683,33.237266 21.0044273,33.4058669 C21.2400497,20.3078544 30.85278,9.58825712 43.1810369,8.15281724 C42.8969876,7.88759939 42.6500169,7.5837311 42.449153,7.24936537 Z" id="Combined-Shape" fill="#FFFFFF"></path>
                        <rect id="Rectangle-path" fill="url(#linearGradient-2)" x="16" y="36" width="59" height="5"></rect>
                        <path d="M75,39 L75,36 L16,36 L16,39 L16,37 L75,37 L75,39 Z" id="Combined-Shape" fill="#FFFFFF"></path>
                        <path d="M51.6100001,45.7948436 C48.6028973,47.2182735 38.1177276,50.9029465 38.1177276,50.9029465 L25.7234504,50.1463556 C25.7234504,50.1463556 32.8129714,48.2251228 35.5612425,47.6238046 C38.3142885,47.0246188 37.1168189,44 35.5946659,44 C34.0727117,44 20.808036,44.533665 20.808036,44.533665 L12,47.6238046 L14.3310767,62 C14.3310767,62 16.14449,58.9751874 17.9533275,58.9751874 C19.7689292,58.9751874 35.4953907,59.3828509 37.6301054,58.9751874 C39.7660139,58.5628715 52.7752401,49.8916387 54.3332038,48.8803308 C55.8842044,47.8736754 54.6288409,44.3692815 51.6100001,45.7948436 Z" id="Shape" fill="url(#linearGradient-2)"></path>
                        <path d="M28.7699462,50.3323246 L38.1177276,50.9029465 C38.1177276,50.9029465 48.6028973,47.2182735 51.6100001,45.7948436 C54.0226936,44.6555174 55.3089841,46.6651495 54.9364904,48.0319888 C54.6569962,46.9067103 53.4672218,45.9178232 51.6100001,46.7948436 C48.6028973,48.2182735 38.1177276,51.9029465 38.1177276,51.9029465 L25.7234504,51.1463556 C25.7234504,51.1463556 27.045931,50.7879685 28.7699462,50.3323246 Z M37.1383268,46.3971795 C37.4686615,45.3269852 36.6028876,44 35.5946659,44 C34.0727117,44 20.808036,44.533665 20.808036,44.533665 L12,47.6238046 L12.1534208,48.5699797 L20.808036,45.533665 C20.808036,45.533665 34.0727117,45 35.5946659,45 C36.2972334,45 36.9306307,45.6443624 37.1383268,46.3971795 Z" id="Combined-Shape" fill="#FFFFFF"></path>
                        <polygon id="Shape" fill="url(#linearGradient-2)" points="0 48.7882205 0 68 13 65.4619579 9.74779596 47"></polygon>
                        <path d="M0,58.8941103 L0,48.7882205 L9.74779596,47 L13,65.4619579 L12.8296999,65.4952063 L9.74779596,48 L0,49.7882205 L0,58.8941103 Z" id="Combined-Shape" fill="#FFFFFF"></path>
                    </g>
                </g>
            </g>
        </g>
    </g>
</svg>