<?xml version="1.0" encoding="UTF-8"?>
<svg width="44px" height="44px" viewBox="0 0 44 44" version="1.1" xmlns="http://www.w3.org/2000/svg" xmlns:xlink="http://www.w3.org/1999/xlink">
    <!-- Generator: sketchtool 41.2 (35397) - http://www.bohemiancoding.com/sketch -->
    <title>87769D3B-4E00-47BB-8ACB-8468DDB31427</title>
    <desc>Created with sketchtool.</desc>
    <defs>
        <filter x="-50%" y="-50%" width="200%" height="200%" filterUnits="objectBoundingBox" id="filter-1">
            <feOffset dx="0" dy="2" in="SourceAlpha" result="shadowOffsetOuter1"></feOffset>
            <feGaussianBlur stdDeviation="2" in="shadowOffsetOuter1" result="shadowBlurOuter1"></feGaussianBlur>
            <feColorMatrix values="0 0 0 0 0   0 0 0 0 0   0 0 0 0 0  0 0 0 0.3 0" type="matrix" in="shadowBlurOuter1" result="shadowMatrixOuter1"></feColorMatrix>
            <feMerge>
                <feMergeNode in="shadowMatrixOuter1"></feMergeNode>
                <feMergeNode in="SourceGraphic"></feMergeNode>
            </feMerge>
        </filter>
    </defs>
    <g id="Symbols" stroke="none" stroke-width="1" fill="none" fill-rule="evenodd">
        <g id="social_icons" transform="translate(-52.000000, 2.000000)">
            <g filter="url(#filter-1)" id="VK">
                <g transform="translate(56.000000, 0.000000)">
                    <path d="M0,18 C0,8.05887401 8.05887401,0 18,0 C27.941126,0 36,8.05887401 36,18 C36,27.941126 27.941126,36 18,36 C8.05887401,36 0,27.941126 0,18 Z" id="back" fill="#4C6C91"></path>
                    <path d="M18.9415968,23.9070601 C18.9415968,23.9070601 19.2881146,23.8692667 19.4655994,23.6821432 C19.628059,23.5106901 19.6224245,23.1871416 19.6224245,23.1871416 C19.6224245,23.1871416 19.6008259,21.6763269 20.3154602,21.4532536 C21.0197647,21.2338675 21.9240918,22.9142916 22.8838241,23.5604668 C23.6087882,24.0490158 24.1590848,23.9420881 24.1590848,23.9420881 L26.7236924,23.9070601 C26.7236924,23.9070601 28.0646883,23.8259425 27.428936,22.7907717 C27.376348,22.705967 27.0580023,22.0247638 25.5226184,20.6254857 C23.9139869,19.1607605 24.1299736,19.3976607 26.0663415,16.8636584 C27.2458169,15.320581 27.7172314,14.3785111 27.569797,13.9756886 C27.4298751,13.5903802 26.5621719,13.6926989 26.5621719,13.6926989 L23.6754624,13.7102129 C23.6754624,13.7102129 23.4613538,13.6816374 23.3026505,13.7747383 C23.1477035,13.8659956 23.0472227,14.0789292 23.0472227,14.0789292 C23.0472227,14.0789292 22.5908334,15.2726479 21.9813752,16.2884611 C20.6957847,18.4307024 20.1821119,18.5440826 19.9717596,18.4113448 C19.4825027,18.1007014 19.6045822,17.165084 19.6045822,16.500473 C19.6045822,14.4236788 19.925745,13.5581175 18.9800988,13.3341224 C18.6664485,13.2594574 18.4354366,13.2106025 17.6325294,13.2023064 C16.6023667,13.1921667 15.7309072,13.2059935 15.2369549,13.4428937 C14.9082795,13.6005199 14.6547299,13.9526439 14.8096769,13.9729233 C15.0003086,13.9978116 15.4322821,14.0872253 15.6614158,14.3932597 C15.9572237,14.7887079 15.9468939,15.6754704 15.9468939,15.6754704 C15.9468939,15.6754704 16.1168661,18.120059 15.5496662,18.4233281 C15.16089,18.6316527 14.6274967,18.2067073 13.480889,16.262651 C12.8939685,15.2671172 12.4507262,14.1664993 12.4507262,14.1664993 C12.4507262,14.1664993 12.3652706,13.96094 12.2122017,13.8503251 C12.0272044,13.7166655 11.7689594,13.6751849 11.7689594,13.6751849 L9.02592798,13.6926989 C9.02592798,13.6926989 8.61367506,13.7037604 8.46248435,13.8798224 C8.32819695,14.035605 8.45215455,14.3591535 8.45215455,14.3591535 C8.45215455,14.3591535 10.5998139,19.2916548 13.0320122,21.7777239 C15.2623099,24.0563901 17.79405,23.9070601 17.79405,23.9070601 L18.9415968,23.9070601 Z" id="Shape" fill="#FFFFFF"></path>
                </g>
            </g>
        </g>
    </g>
</svg>