<?xml version="1.0" encoding="UTF-8"?>
<svg width="74px" height="52px" viewBox="0 0 74 52" version="1.1" xmlns="http://www.w3.org/2000/svg" xmlns:xlink="http://www.w3.org/1999/xlink">
    <!-- Generator: sketchtool 41.2 (35397) - http://www.bohemiancoding.com/sketch -->
    <title>9F70888B-A776-43FF-B1A0-82892C1410E6</title>
    <desc>Created with sketchtool.</desc>
    <defs>
        <filter x="-50%" y="-50%" width="200%" height="200%" filterUnits="objectBoundingBox" id="filter-1">
            <feOffset dx="0" dy="2" in="SourceAlpha" result="shadowOffsetOuter1"></feOffset>
            <feGaussianBlur stdDeviation="2" in="shadowOffsetOuter1" result="shadowBlurOuter1"></feGaussianBlur>
            <feColorMatrix values="0 0 0 0 0   0 0 0 0 0   0 0 0 0 0  0 0 0 0.5 0" type="matrix" in="shadowBlurOuter1" result="shadowMatrixOuter1"></feColorMatrix>
            <feMerge>
                <feMergeNode in="shadowMatrixOuter1"></feMergeNode>
                <feMergeNode in="SourceGraphic"></feMergeNode>
            </feMerge>
        </filter>
        <linearGradient x1="50%" y1="0%" x2="50%" y2="100%" id="linearGradient-2">
            <stop stop-color="#FFD42C" offset="0%"></stop>
            <stop stop-color="#EFAA31" offset="100%"></stop>
        </linearGradient>
    </defs>
    <g id="Page-1" stroke="none" stroke-width="1" fill="none" fill-rule="evenodd" opacity="0.9">
        <g id="Main" transform="translate(-229.000000, -1021.000000)">
            <g id="promo" transform="translate(0.000000, 700.000000)">
                <g id="Group-19" transform="translate(150.000000, 58.000000)">
                    <g id="Group-10" transform="translate(78.000000, 140.000000)">
                        <g id="Group" filter="url(#filter-1)" transform="translate(5.000000, 125.000000)">
                            <path d="M34,0 C21.8692964,0 12,9.86899611 12,22 C12,34.1310039 21.8689961,44 34,44 C46.1310039,44 56,34.1310039 56,22 C56,9.86899611 46.1307036,0 34,0 Z M34,6 C25.1776701,6 18,13.1774517 18,22 C18,30.8225483 25.1774517,38 34,38 C42.8225483,38 50,30.8225483 50,22 C50,13.1774517 42.8223299,6 34,6 Z" id="Combined-Shape" fill="url(#linearGradient-2)"></path>
                            <path d="M12.005598,22.5000038 C12.0018726,22.3337783 12,22.1671038 12,22 C12,9.86899611 21.8692964,0 34,0 C46.1307036,0 56,9.86899611 56,22 C56,22.1671038 55.9981274,22.3337783 55.994402,22.5000038 C55.7276772,10.5989833 45.9636065,1 34,1 C22.0363935,1 12.2723228,10.5989833 12.005598,22.5000038 Z" id="Combined-Shape" fill="#FFFFFF"></path>
                            <path d="M34,8 C26.2804613,8 20,14.2802703 20,22 C20,29.7197297 26.2802703,36 34,36 C41.7197297,36 48,29.7197297 48,22 C48,14.2802703 41.7195387,8 34,8 Z" id="Shape" fill="url(#linearGradient-2)"></path>
                            <path d="M20.008806,22.5000037 C20.0029518,22.3340453 20,22.1673609 20,22 C20,14.2802703 26.2804613,8 34,8 C41.7195387,8 48,14.2802703 48,22 C48,22.1673609 47.9970482,22.3340453 47.991194,22.5000037 C47.7270115,15.0109181 41.5521844,9 34,9 C26.4478156,9 20.2729885,15.0109181 20.008806,22.5000037 Z" id="Combined-Shape" fill="#FFFFFF"></path>
                            <path d="M65.9504715,2.68868934 C65.9504715,1.75603143 65.1807714,1 64.2312516,1 C63.3703774,1 62.6421742,1.62542426 62.5275001,2.46355998 L60.0153776,20.8053939 C59.9491909,21.2882314 60.0986688,21.7754516 60.4249919,22.1421451 C60.7514637,22.5088386 61.2231002,22.7190665 61.7191291,22.7190665 L62.7278452,22.7190665 L62.7278452,42.3929767 C62.7278452,43.2804918 63.4603617,44 64.3639226,44 C65.2674835,44 66,43.2804918 66,42.3929767 L65.9504715,2.68868934 Z" id="Shape" fill="url(#linearGradient-2)"></path>
                            <path d="M10,2.10240206 C10,1.49343516 9.49895522,1 8.88059701,1 C8.26223881,1 7.76119403,1.49343516 7.76119403,2.10240206 L7.76119403,8.20221314 L6.11940299,8.20221314 L6.11940299,2.10240206 C6.11940299,1.49343516 5.61835821,1 5,1 C4.38164179,1 3.88059701,1.49343516 3.88059701,2.10240206 L3.88059701,8.20221314 L2.23880597,8.20221314 L2.23880597,2.10240206 C2.23880597,1.49343516 1.73776119,1 1.11940299,1 C0.501044776,1 0,1.49343516 0,2.10240206 L0,12.0484204 C0,14.1972225 1.40552239,16.0277979 3.35820896,16.6984993 L3.35820896,41.690836 C3.35820896,42.5837816 4.09328358,43.3076923 5,43.3076923 C5.90671642,43.3076923 6.64179104,42.5837816 6.64179104,41.690836 L6.64179104,16.6984993 C8.59447761,16.0277979 10,14.1972225 10,12.0484204 L10,2.10240206 Z" id="Shape" fill="url(#linearGradient-2)"></path>
                        </g>
                    </g>
                </g>
            </g>
        </g>
    </g>
</svg>