<?xml version="1.0" encoding="UTF-8"?>
<svg width="12px" height="18px" viewBox="0 0 12 18" version="1.1" xmlns="http://www.w3.org/2000/svg" xmlns:xlink="http://www.w3.org/1999/xlink">
    <!-- Generator: sketchtool 41.2 (35397) - http://www.bohemiancoding.com/sketch -->
    <title>7198D215-C68D-4A7A-9B4F-B16A268AB503</title>
    <desc>Created with sketchtool.</desc>
    <defs></defs>
    <g id="Page-1" stroke="none" stroke-width="1" fill="none" fill-rule="evenodd">
        <g id="Main" transform="translate(-114.000000, -44.000000)" fill="#B68D39">
            <g id="top">
                <g id="Group-20" transform="translate(114.000000, 34.000000)">
                    <g id="adress" transform="translate(0.000000, 7.000000)">
                        <path d="M0.565171821,11.6604069 C1.99057328,15.0203475 6.01725605,21.063825 6.01725605,21.063825 C6.01725605,21.063825 10.6829102,13.7322002 11.6380859,11.1830553 L11.6316936,11.1830553 C11.869918,10.5278693 12,9.81965818 12,9.08065642 C12,5.72240261 9.3137085,3 6,3 C2.6862915,3 0,5.72240261 0,9.08065642 C0,10.002937 0.202605945,10.8772602 0.565171821,11.6604069 Z M6.13953488,12.5625 C7.9890466,12.5625 9.48837209,11.051461 9.48837209,9.1875 C9.48837209,7.32353897 7.9890466,5.8125 6.13953488,5.8125 C4.29002316,5.8125 2.79069767,7.32353897 2.79069767,9.1875 C2.79069767,11.051461 4.29002316,12.5625 6.13953488,12.5625 Z" id="Combined-Shape"></path>
                    </g>
                </g>
            </g>
        </g>
    </g>
</svg>